<mxfile host="app.diagrams.net" agent="Mozilla/5.0 (Windows NT 10.0; Win64; x64) AppleWebKit/537.36 (KHTML, like Gecko) Chrome/136.0.0.0 Safari/537.36" version="26.2.14">
  <diagram name="Page-1" id="lGpxh2dbdz6TVea-AG9x">
    <mxGraphModel dx="1120" dy="1570" grid="1" gridSize="10" guides="1" tooltips="1" connect="1" arrows="1" fold="1" page="1" pageScale="1" pageWidth="850" pageHeight="1100" math="0" shadow="0">
      <root>
        <mxCell id="0" />
        <mxCell id="1" parent="0" />
        <mxCell id="SFRnVzFXAosSf4fsh0so-10" style="rounded=0;orthogonalLoop=1;jettySize=auto;html=1;entryX=0;entryY=0.5;entryDx=0;entryDy=0;" edge="1" parent="1" target="SFRnVzFXAosSf4fsh0so-4">
          <mxGeometry relative="1" as="geometry">
            <mxPoint x="374" y="400" as="sourcePoint" />
          </mxGeometry>
        </mxCell>
        <mxCell id="SFRnVzFXAosSf4fsh0so-25" style="rounded=0;orthogonalLoop=1;jettySize=auto;html=1;entryX=1;entryY=0.5;entryDx=0;entryDy=0;fillColor=#f8cecc;strokeColor=#b85450;" edge="1" parent="1" target="SFRnVzFXAosSf4fsh0so-24">
          <mxGeometry relative="1" as="geometry">
            <mxPoint x="300" y="400" as="sourcePoint" />
          </mxGeometry>
        </mxCell>
        <mxCell id="SFRnVzFXAosSf4fsh0so-1" value="Authenticated User" style="shape=umlActor;verticalLabelPosition=bottom;verticalAlign=top;html=1;" vertex="1" parent="1">
          <mxGeometry x="320" y="380" width="30" height="60" as="geometry" />
        </mxCell>
        <mxCell id="SFRnVzFXAosSf4fsh0so-4" value="View Balance" style="ellipse;whiteSpace=wrap;html=1;" vertex="1" parent="1">
          <mxGeometry x="464" y="220" width="140" height="70" as="geometry" />
        </mxCell>
        <mxCell id="SFRnVzFXAosSf4fsh0so-5" value="View Account Details" style="ellipse;whiteSpace=wrap;html=1;" vertex="1" parent="1">
          <mxGeometry x="464" y="300" width="140" height="70" as="geometry" />
        </mxCell>
        <mxCell id="SFRnVzFXAosSf4fsh0so-6" value="Make Payment" style="ellipse;whiteSpace=wrap;html=1;" vertex="1" parent="1">
          <mxGeometry x="464" y="380" width="140" height="70" as="geometry" />
        </mxCell>
        <mxCell id="SFRnVzFXAosSf4fsh0so-7" value="Print Statement" style="ellipse;whiteSpace=wrap;html=1;" vertex="1" parent="1">
          <mxGeometry x="464" y="460" width="140" height="70" as="geometry" />
        </mxCell>
        <mxCell id="SFRnVzFXAosSf4fsh0so-8" value="Dispute Entry" style="ellipse;whiteSpace=wrap;html=1;" vertex="1" parent="1">
          <mxGeometry x="464" y="550" width="140" height="70" as="geometry" />
        </mxCell>
        <mxCell id="SFRnVzFXAosSf4fsh0so-9" value="Use-Case Diagram&lt;div&gt;Jason Luttrell&lt;/div&gt;&lt;div&gt;Darreon Tolen&lt;/div&gt;&lt;div&gt;Module 2.1&lt;/div&gt;" style="shape=umlFrame;whiteSpace=wrap;html=1;pointerEvents=0;width=150;height=70;align=left;" vertex="1" parent="1">
          <mxGeometry x="30" y="150" width="770" height="510" as="geometry" />
        </mxCell>
        <mxCell id="SFRnVzFXAosSf4fsh0so-11" style="rounded=0;orthogonalLoop=1;jettySize=auto;html=1;entryX=0;entryY=0.5;entryDx=0;entryDy=0;" edge="1" parent="1" target="SFRnVzFXAosSf4fsh0so-6">
          <mxGeometry relative="1" as="geometry">
            <mxPoint x="374" y="400" as="sourcePoint" />
            <mxPoint x="474" y="265" as="targetPoint" />
          </mxGeometry>
        </mxCell>
        <mxCell id="SFRnVzFXAosSf4fsh0so-12" style="rounded=0;orthogonalLoop=1;jettySize=auto;html=1;entryX=0;entryY=0.5;entryDx=0;entryDy=0;exitX=1;exitY=0.3333333333333333;exitDx=0;exitDy=0;exitPerimeter=0;" edge="1" parent="1" target="SFRnVzFXAosSf4fsh0so-7">
          <mxGeometry relative="1" as="geometry">
            <mxPoint x="374" y="400" as="sourcePoint" />
            <mxPoint x="484" y="275" as="targetPoint" />
          </mxGeometry>
        </mxCell>
        <mxCell id="SFRnVzFXAosSf4fsh0so-13" style="rounded=0;orthogonalLoop=1;jettySize=auto;html=1;entryX=0;entryY=0.5;entryDx=0;entryDy=0;" edge="1" parent="1" target="SFRnVzFXAosSf4fsh0so-5">
          <mxGeometry relative="1" as="geometry">
            <mxPoint x="374" y="400" as="sourcePoint" />
            <mxPoint x="494" y="285" as="targetPoint" />
          </mxGeometry>
        </mxCell>
        <mxCell id="SFRnVzFXAosSf4fsh0so-14" style="rounded=0;orthogonalLoop=1;jettySize=auto;html=1;entryX=0;entryY=0.5;entryDx=0;entryDy=0;exitX=1;exitY=0.3333333333333333;exitDx=0;exitDy=0;exitPerimeter=0;" edge="1" parent="1" target="SFRnVzFXAosSf4fsh0so-8">
          <mxGeometry relative="1" as="geometry">
            <mxPoint x="374" y="400" as="sourcePoint" />
            <mxPoint x="504" y="295" as="targetPoint" />
          </mxGeometry>
        </mxCell>
        <mxCell id="SFRnVzFXAosSf4fsh0so-15" value="Improperly&amp;nbsp;&lt;div&gt;Authenticated User&lt;/div&gt;" style="shape=umlActor;verticalLabelPosition=bottom;verticalAlign=top;html=1;fillColor=#f8cecc;strokeColor=#b85450;" vertex="1" parent="1">
          <mxGeometry x="720" y="375" width="30" height="60" as="geometry" />
        </mxCell>
        <mxCell id="SFRnVzFXAosSf4fsh0so-16" style="rounded=0;orthogonalLoop=1;jettySize=auto;html=1;entryX=0;entryY=0.5;entryDx=0;entryDy=0;fillColor=#f8cecc;strokeColor=#b85450;" edge="1" parent="1">
          <mxGeometry relative="1" as="geometry">
            <mxPoint x="694" y="401" as="sourcePoint" />
            <mxPoint x="604" y="256" as="targetPoint" />
          </mxGeometry>
        </mxCell>
        <mxCell id="SFRnVzFXAosSf4fsh0so-17" style="rounded=0;orthogonalLoop=1;jettySize=auto;html=1;entryX=0;entryY=0.5;entryDx=0;entryDy=0;fillColor=#f8cecc;strokeColor=#b85450;" edge="1" parent="1">
          <mxGeometry relative="1" as="geometry">
            <mxPoint x="694" y="401" as="sourcePoint" />
            <mxPoint x="604" y="416" as="targetPoint" />
          </mxGeometry>
        </mxCell>
        <mxCell id="SFRnVzFXAosSf4fsh0so-18" style="rounded=0;orthogonalLoop=1;jettySize=auto;html=1;entryX=0;entryY=0.5;entryDx=0;entryDy=0;exitX=1;exitY=0.3333333333333333;exitDx=0;exitDy=0;exitPerimeter=0;fillColor=#f8cecc;strokeColor=#b85450;" edge="1" parent="1">
          <mxGeometry relative="1" as="geometry">
            <mxPoint x="694" y="401" as="sourcePoint" />
            <mxPoint x="604" y="496" as="targetPoint" />
          </mxGeometry>
        </mxCell>
        <mxCell id="SFRnVzFXAosSf4fsh0so-19" style="rounded=0;orthogonalLoop=1;jettySize=auto;html=1;entryX=0;entryY=0.5;entryDx=0;entryDy=0;fillColor=#f8cecc;strokeColor=#b85450;" edge="1" parent="1">
          <mxGeometry relative="1" as="geometry">
            <mxPoint x="694" y="401" as="sourcePoint" />
            <mxPoint x="604" y="336" as="targetPoint" />
          </mxGeometry>
        </mxCell>
        <mxCell id="SFRnVzFXAosSf4fsh0so-20" style="rounded=0;orthogonalLoop=1;jettySize=auto;html=1;entryX=0;entryY=0.5;entryDx=0;entryDy=0;exitX=1;exitY=0.3333333333333333;exitDx=0;exitDy=0;exitPerimeter=0;fillColor=#f8cecc;strokeColor=#b85450;" edge="1" parent="1">
          <mxGeometry relative="1" as="geometry">
            <mxPoint x="694" y="401" as="sourcePoint" />
            <mxPoint x="604" y="586" as="targetPoint" />
          </mxGeometry>
        </mxCell>
        <UserObject label="Abuse Cases in Red" placeholders="1" name="Variable" id="SFRnVzFXAosSf4fsh0so-21">
          <mxCell style="text;html=1;strokeColor=#b85450;fillColor=#f8cecc;align=center;verticalAlign=middle;whiteSpace=wrap;overflow=hidden;" vertex="1" parent="1">
            <mxGeometry x="660" y="620" width="120" height="30" as="geometry" />
          </mxCell>
        </UserObject>
        <mxCell id="SFRnVzFXAosSf4fsh0so-22" value="Make Payment To Illegal Entity" style="ellipse;whiteSpace=wrap;html=1;fillColor=#f8cecc;strokeColor=#b85450;" vertex="1" parent="1">
          <mxGeometry x="60" y="375" width="140" height="70" as="geometry" />
        </mxCell>
        <mxCell id="SFRnVzFXAosSf4fsh0so-23" style="rounded=0;orthogonalLoop=1;jettySize=auto;html=1;entryX=1;entryY=0.5;entryDx=0;entryDy=0;fillColor=#f8cecc;strokeColor=#b85450;" edge="1" parent="1" target="SFRnVzFXAosSf4fsh0so-22">
          <mxGeometry relative="1" as="geometry">
            <mxPoint x="300" y="400" as="sourcePoint" />
            <mxPoint x="474" y="425" as="targetPoint" />
          </mxGeometry>
        </mxCell>
        <mxCell id="SFRnVzFXAosSf4fsh0so-24" value="Link Other User Accounts to Profile and view details" style="ellipse;whiteSpace=wrap;html=1;fillColor=#f8cecc;strokeColor=#b85450;" vertex="1" parent="1">
          <mxGeometry x="60" y="290" width="140" height="70" as="geometry" />
        </mxCell>
        <mxCell id="SFRnVzFXAosSf4fsh0so-26" value="Dispute Valid Payments" style="ellipse;whiteSpace=wrap;html=1;fillColor=#f8cecc;strokeColor=#b85450;" vertex="1" parent="1">
          <mxGeometry x="60" y="550" width="140" height="70" as="geometry" />
        </mxCell>
        <mxCell id="SFRnVzFXAosSf4fsh0so-27" style="rounded=0;orthogonalLoop=1;jettySize=auto;html=1;entryX=1;entryY=0.5;entryDx=0;entryDy=0;fillColor=#f8cecc;strokeColor=#b85450;" edge="1" parent="1" target="SFRnVzFXAosSf4fsh0so-26">
          <mxGeometry relative="1" as="geometry">
            <mxPoint x="300" y="400" as="sourcePoint" />
            <mxPoint x="210" y="335" as="targetPoint" />
          </mxGeometry>
        </mxCell>
        <mxCell id="SFRnVzFXAosSf4fsh0so-28" value="Transfer Funds Into Account with stolen Information" style="ellipse;whiteSpace=wrap;html=1;fillColor=#f8cecc;strokeColor=#b85450;" vertex="1" parent="1">
          <mxGeometry x="60" y="460" width="140" height="70" as="geometry" />
        </mxCell>
        <mxCell id="SFRnVzFXAosSf4fsh0so-29" style="rounded=0;orthogonalLoop=1;jettySize=auto;html=1;entryX=1;entryY=0.5;entryDx=0;entryDy=0;fillColor=#f8cecc;strokeColor=#b85450;" edge="1" parent="1" target="SFRnVzFXAosSf4fsh0so-28">
          <mxGeometry relative="1" as="geometry">
            <mxPoint x="300" y="400" as="sourcePoint" />
            <mxPoint x="220" y="595" as="targetPoint" />
          </mxGeometry>
        </mxCell>
      </root>
    </mxGraphModel>
  </diagram>
</mxfile>
